HIERARCHY
ROOT Hips
{
  OFFSET 155.048 98.1286 3.93448
  CHANNELS 6 Xposition Yposition Zposition Zrotation Xrotation Yrotation
  JOINT RightUpLeg
  {
    OFFSET -8.9458 -8.66707 0.101652
    CHANNELS 3 Zrotation Xrotation Yrotation
    JOINT RightLeg
    {
      OFFSET 0 -44.4227 1.3727
      CHANNELS 3 Zrotation Xrotation Yrotation
      JOINT RightFoot
      {
        OFFSET 0.253549 -42.0924 -1.46059
        CHANNELS 3 Zrotation Xrotation Yrotation
        JOINT RightToes
        {
          OFFSET 0.04 -4.41509 8.4991
          CHANNELS 3 Zrotation Xrotation Yrotation
          End Site
          {
            OFFSET -0.08 -0.137448 9.77979
          }
        }
      }
    }
  }
  JOINT Spine
  {
    OFFSET 0 11.8905 0
    CHANNELS 3 Zrotation Xrotation Yrotation
    JOINT Spine1
    {
      OFFSET 0 25.6574 0.127663
      CHANNELS 3 Zrotation Xrotation Yrotation
      JOINT Head
      {
        OFFSET 0 8.73416 0.011341
        CHANNELS 3 Zrotation Xrotation Yrotation
        End Site
        {
          OFFSET -0.29 12.7742 2.51395
        }
      }
      JOINT LeftShoulder1
      {
        OFFSET 8.99 -0.362252 -0.22
        CHANNELS 3 Zrotation Xrotation Yrotation
        JOINT LeftArm
        {
          OFFSET 10.2827 -0.00337999 0.322123
          CHANNELS 3 Zrotation Xrotation Yrotation
          JOINT LeftForeArm
          {
            OFFSET 26.2597 0.099144 -1.42434
            CHANNELS 3 Zrotation Xrotation Yrotation
            JOINT LeftHand
            {
              OFFSET 22.0902 0.085362 1.02216
              CHANNELS 3 Zrotation Xrotation Yrotation
              End Site
              {
                OFFSET 13.419 -0.6 1.50291
              }
            }
          }
        }
      }
      JOINT RightShoulder
      {
        OFFSET -8.99 -0.362252 -0.22
        CHANNELS 3 Zrotation Xrotation Yrotation
        JOINT RightArm
        {
          OFFSET -10.2827 -0.00338 0.322123
          CHANNELS 3 Zrotation Xrotation Yrotation
          JOINT RightForeArm
          {
            OFFSET -26.364 0.099144 -1.42434
            CHANNELS 3 Zrotation Xrotation Yrotation
            JOINT RightHand
            {
              OFFSET -22.0324 0.085362 1.02216
              CHANNELS 3 Zrotation Xrotation Yrotation
              End Site
              {
                OFFSET -13.3284 -0.6 1.50291
              }
            }
          }
        }
      }
    }
  }
  JOINT LeftUpLeg
  {
    OFFSET 8.9458 -8.66707 0.101652
    CHANNELS 3 Zrotation Xrotation Yrotation
    JOINT LeftLeg
    {
      OFFSET 0 -44.4227 1.3727
      CHANNELS 3 Zrotation Xrotation Yrotation
      JOINT LeftFoot
      {
        OFFSET -0.253549 -42.0924 -1.46059
        CHANNELS 3 Zrotation Xrotation Yrotation
        JOINT LeftToes
        {
          OFFSET -0.04 -4.41509 8.4991
          CHANNELS 3 Zrotation Xrotation Yrotation
          End Site
          {
            OFFSET 0.08 -0.047448 9.77979
          }
        }
      }
    }
  }
}
MOTION
Frames:	19
Frame Time:	0.0333333
177.511 99.9462 5.62099 -1.80405 0.31079 -96.5695 0.824807 -3.30069 -3.95145 -1.72287 13.5735 -8.45856 1.47424 -7.97558 -0.164257 0.0462048 0.000530889 0.662642 2.24165 -11.2282 0.34609 -3.03285 22.0827 0.952608 2.7928 -3.8213 -4.9309 -38.73 8.58214 -15.4584 -45.1342 -43.6829 -10.8575 -15.064 29.7563 -0.645789 22.0633 9.18774 1.60446 49.6199 13.0565 18.8747 20.1685 -45.9322 -5.66303 6.3319 28.0462 8.72074 -5.70932 9.53737 3.1606 -0.264338 -2.15004 4.74783 1.87442 13.1315 10.9532 -2.42856 -8.13628 0.0198395 -1.33188e-009 8.75217e-006 -1.45022e-008 
177.472 99.9523 5.64892 -1.82968 0.340001 -96.6927 0.829373 -3.22934 -3.9494 -1.74169 13.5214 -8.33842 1.52669 -7.96821 -0.164254 0.0462048 0.000530889 0.662642 2.40519 -11.3365 0.417059 -3.29317 22.3096 1.10352 2.89301 -3.92061 -5.02993 -38.5173 8.5167 -15.4079 -45.0192 -43.3721 -10.4987 -15.0353 29.7324 -0.852193 21.9579 9.20395 1.67337 49.6076 13.0395 18.8512 20.4195 -45.8776 -5.38362 6.31641 27.9084 8.85997 -5.83651 9.52696 3.18482 -0.252312 -2.07238 4.77892 1.85781 13.1153 11.0431 -2.43747 -8.16431 0.0198408 -1.33188e-009 8.75217e-006 -1.45022e-008 
177.4 99.9591 5.69825 -1.90385 0.370167 -96.9994 0.827608 -3.10565 -3.9334 -1.78943 13.4673 -8.04002 1.54645 -7.95362 -0.164248 0.0462048 0.000530889 0.662642 2.63364 -11.3789 0.551676 -3.66212 22.5311 1.35203 3.01938 -4.0194 -4.95862 -38.2392 8.41147 -15.2978 -44.7379 -42.8203 -9.75321 -14.9559 29.7687 -1.25071 21.8056 9.16222 1.41607 49.5249 12.9875 18.7984 20.8654 -45.7767 -4.92054 6.26247 27.7941 9.10855 -6.03465 9.51286 3.17186 -0.258211 -1.87377 4.84576 1.80648 13.0471 11.288 -2.38479 -8.20588 0.0198429 -1.33188e-009 8.75217e-006 -1.45022e-008 
177.339 99.9586 5.74422 -1.96742 0.382638 -97.3189 0.802731 -3.03308 -3.91768 -1.82584 13.4669 -7.72218 1.55114 -7.95799 -0.16425 0.0462048 0.000530889 0.662642 2.66345 -11.2386 0.67317 -3.71354 22.4634 1.49142 3.02185 -3.94913 -4.64472 -38.2001 8.35977 -15.2009 -44.3459 -42.5447 -9.03462 -14.9635 29.9787 -1.36781 21.9912 9.07067 0.952396 49.3524 12.9135 18.7472 21.228 -45.6439 -4.59497 6.18919 27.8248 9.34907 -6.28925 9.49788 3.08738 -0.255581 -1.69132 4.952 1.707 12.9718 11.5154 -2.27171 -8.24655 0.0198449 -1.33188e-009 8.75217e-006 -1.45022e-008 
177.319 99.9505 5.77847 -1.93043 0.41663 -97.4278 0.81666 -3.07842 -3.88682 -1.82414 13.4868 -7.63845 1.58612 -7.96778 -0.164254 0.0462048 0.000530889 0.662642 2.53537 -11.0229 0.732646 -3.51458 22.1273 1.48948 2.99088 -3.74905 -4.45512 -38.3207 8.37015 -15.1716 -43.9875 -42.9742 -8.67208 -15.1556 30.3846 -0.879967 22.252 9.03524 0.816167 49.2878 12.9018 18.7556 21.2061 -45.4783 -4.60962 6.15483 27.8461 9.52056 -6.4721 9.48696 3.03483 -0.17605 -1.7342 5.08004 1.59369 13.0396 11.5031 -2.16979 -8.31911 0.0198486 -1.33188e-009 8.75217e-006 -1.45022e-008 
177.322 99.9414 5.81119 -1.79288 0.484952 -97.3146 0.889498 -3.20482 -3.83161 -1.80285 13.4767 -7.81038 1.60618 -7.94725 -0.164246 0.0462048 0.000530889 0.662642 2.56247 -10.9258 0.730245 -3.59256 21.8177 1.50478 3.1123 -3.62815 -4.62099 -38.2654 8.36154 -15.1765 -43.8008 -43.7714 -8.63631 -15.3889 30.807 -0.145688 22.1257 9.09971 1.13892 49.467 12.9837 18.8174 20.947 -45.4043 -4.74625 6.15565 27.807 9.58835 -6.40884 9.49001 3.06839 -0.0469346 -2.00012 5.16578 1.53304 13.2695 11.2874 -2.12233 -8.42604 0.0198541 -1.33188e-009 8.75217e-006 -1.45022e-008 
177.31 99.9374 5.85072 -1.64696 0.527755 -97.2037 0.934543 -3.33891 -3.78772 -1.79038 13.4683 -7.96069 1.57219 -7.91325 -0.164232 0.0462048 0.000530889 0.662642 2.80935 -11.0203 0.702362 -4.0761 21.7909 1.61833 3.29488 -3.65788 -4.84323 -37.9838 8.29362 -15.148 -43.7634 -44.2109 -8.68998 -15.483 31.0838 0.226537 21.8821 9.17382 1.49396 49.673 13.0581 18.854 20.9595 -45.4984 -4.60329 6.13209 27.8621 9.57704 -6.19158 9.50739 3.03422 0.012109 -2.24728 5.16734 1.53001 13.451 11.1479 -2.1043 -8.50151 0.019858 -1.33188e-009 8.75217e-006 -1.45022e-008 
177.281 99.9369 5.88798 -1.54089 0.496571 -97.2333 0.885959 -3.47759 -3.78202 -1.78782 13.5285 -7.91885 1.54961 -7.92082 -0.164235 0.0462048 0.000530889 0.662642 2.86384 -11.1576 0.676955 -4.28509 21.9085 1.66369 3.22666 -3.6722 -4.76362 -37.8606 8.24224 -15.0874 -43.6462 -44.0426 -8.65668 -15.4528 31.1305 0.0931399 22.0554 9.16443 1.47671 49.5948 13.0218 18.8263 21.327 -45.5828 -4.22331 6.08565 28.0546 9.56288 -6.08404 9.52489 2.81593 -0.0379765 -2.3426 5.12109 1.52375 13.4401 11.2201 -2.0759 -8.50368 0.0198581 -1.33188e-009 8.75217e-006 -1.45022e-008 
177.257 99.9379 5.91761 -1.44356 0.433905 -97.2662 0.80004 -3.63092 -3.79756 -1.78193 13.6291 -7.85734 1.61427 -7.97606 -0.164257 0.0462048 0.000530889 0.662642 2.49738 -11.0667 0.706789 -3.82933 21.6881 1.57545 2.93757 -3.51026 -4.6837 -38.0872 8.30898 -15.1372 -43.199 -43.5904 -8.44673 -15.4279 30.902 -0.197682 22.4056 9.09757 1.18302 49.3713 12.932 18.7708 21.4685 -45.5472 -4.23834 6.03779 28.1687 9.63612 -6.12911 9.53083 2.60886 -0.117508 -2.40321 5.06608 1.50467 13.3616 11.333 -2.03826 -8.47711 0.0198567 -1.33188e-009 8.75217e-006 -1.45022e-008 
177.228 99.9396 5.96355 -1.37287 0.404549 -97.1508 0.734815 -3.69989 -3.84313 -1.76856 13.667 -7.92959 1.72982 -8.03042 -0.164279 0.0462048 0.000530889 0.662642 1.94986 -10.7989 0.717985 -3.01819 21.2132 1.36143 2.63268 -3.3387 -4.86145 -38.5271 8.45778 -15.2748 -42.5442 -43.1061 -8.14659 -15.3683 30.269 -0.605485 22.3236 9.06832 1.00997 49.2064 12.8721 18.7403 21.229 -45.597 -4.60657 6.00783 28.3177 9.60192 -6.17551 9.52416 2.68688 -0.199127 -2.47811 4.9633 1.54828 13.3525 11.3379 -2.02092 -8.47113 0.0198564 -1.33188e-009 8.75217e-006 -1.45022e-008 
177.158 99.941 6.05591 -1.40301 0.395507 -96.9821 0.638523 -3.58967 -3.97198 -1.74634 13.6239 -7.96977 1.79865 -8.05836 -0.16429 0.0462048 0.000530889 0.662642 1.81229 -10.6519 0.676435 -2.79321 21.0485 1.25911 2.5571 -3.38002 -5.11987 -38.7455 8.54185 -15.364 -42.2137 -42.6171 -8.0953 -15.2111 29.4402 -1.16327 21.9106 9.1097 1.14866 49.2066 12.8724 18.7408 21.0521 -45.8289 -4.78977 5.98196 28.5627 9.41797 -6.18772 9.51034 2.97529 -0.361392 -2.4159 4.76123 1.69507 13.3269 11.3566 -2.03153 -8.46544 0.0198561 -1.33188e-009 8.75217e-006 -1.45022e-008 
177.056 99.9414 6.18355 -1.50927 0.367347 -96.9274 0.470415 -3.40388 -4.16941 -1.71125 13.597 -7.81135 1.79999 -8.08224 -0.1643 0.0462048 0.000530889 0.662642 2.20485 -10.7745 0.615871 -3.39722 21.4277 1.37667 2.7167 -3.60027 -5.08182 -38.5706 8.48233 -15.3096 -42.4999 -41.9821 -8.50049 -14.9834 28.6481 -1.82226 21.7163 9.16326 1.40393 49.295 12.9079 18.763 21.2025 -45.8936 -4.59796 5.99571 28.6275 9.32249 -6.22046 9.49952 3.16245 -0.601459 -2.19762 4.52165 1.85926 13.205 11.5166 -2.03738 -8.44269 0.0198549 -1.33188e-009 8.75217e-006 -1.45022e-008 
176.979 99.9383 6.29922 -1.56975 0.345703 -96.9502 0.322507 -3.3224 -4.31906 -1.67402 13.6381 -7.62464 1.81545 -8.12361 -0.164317 0.0462048 0.000530889 0.662642 2.57579 -10.9458 0.567819 -3.96536 21.8778 1.50039 2.86434 -3.77739 -4.75795 -38.3217 8.36547 -15.161 -42.9822 -40.9346 -9.05462 -14.743 27.6949 -2.62043 21.7945 9.18221 1.52408 49.3022 12.9216 18.7834 21.4253 -45.5999 -4.39146 6.06753 28.4315 9.42208 -6.19191 9.50214 3.15089 -0.760127 -2.06332 4.38994 1.92013 13.1435 11.6643 -2.00183 -8.45912 0.0198558 -1.33188e-009 8.75217e-006 -1.45022e-008 
176.94 99.926 6.3761 -1.55141 0.386495 -96.9146 0.305248 -3.32791 -4.33907 -1.65996 13.6701 -7.64385 1.91542 -8.17039 -0.164336 0.0462048 0.000530889 0.662642 2.50377 -10.9119 0.530773 -3.79858 21.9349 1.41527 2.80337 -3.78721 -4.49855 -38.3025 8.29618 -15.0168 -43.1674 -39.4162 -9.39051 -14.5426 26.3627 -3.5486 21.8293 9.18663 1.55492 49.1723 12.8794 18.768 21.4956 -45.3876 -4.42159 6.10954 28.3921 9.46592 -6.02132 9.51636 3.11392 -0.729185 -2.13717 4.42706 1.86883 13.2989 11.593 -1.9335 -8.56657 0.0198613 -1.33188e-009 8.75217e-006 -1.45022e-008 
176.896 99.9127 6.43071 -1.52477 0.482971 -96.8435 0.397186 -3.28903 -4.26192 -1.68481 13.6241 -7.79567 2.05973 -8.19132 -0.164345 0.0462048 0.000530889 0.662642 2.33414 -10.7753 0.530677 -3.49076 21.7721 1.31898 2.7049 -3.72519 -4.47752 -38.2467 8.21782 -14.8676 -43.3866 -38.0922 -9.77011 -14.47 25.3228 -4.15858 21.7921 9.19964 1.61969 49.1204 12.8469 18.7349 21.4685 -45.6476 -4.56815 6.06669 28.6931 9.27737 -5.88309 9.52512 3.14652 -0.600986 -2.26153 4.53727 1.80697 13.565 11.3964 -1.88774 -8.7242 0.0197732 -1.33188e-009 8.75217e-006 -1.45022e-008 
176.824 99.9034 6.48558 -1.48561 0.571726 -96.8747 0.500052 -3.25341 -4.1396 -1.74339 13.5594 -7.87201 2.14919 -8.17137 -0.164337 0.0462048 0.000530889 0.662642 2.60056 -10.8022 0.626292 -3.98652 21.7653 1.5572 2.90548 -3.7635 -4.60397 -37.7207 8.03072 -14.6755 -44.2206 -37.725 -10.5997 -14.5555 25.4309 -4.04047 21.809 9.19301 1.58629 49.3845 12.919 18.7424 21.3975 -45.9857 -4.74285 6.02811 28.775 9.11505 -5.99639 9.51648 3.15359 -0.521366 -2.33734 4.59446 1.79916 13.7578 11.3397 -1.90771 -8.8578 0.0193785 -1.33188e-009 8.75217e-006 -1.45022e-008 
176.759 99.8964 6.54138 -1.35388 0.604287 -97.0424 0.556754 -3.38728 -3.98554 -1.81532 13.5794 -7.84264 2.15758 -8.14434 -0.164326 0.0462048 0.000530889 0.662642 2.97847 -10.9363 0.740895 -4.71078 21.7977 1.88542 3.20071 -3.90546 -4.64155 -37.1875 7.86106 -14.521 -45.0659 -37.5796 -11.3056 -14.5634 25.671 -3.96771 21.8252 9.14677 1.33459 49.6882 13.0278 18.7956 21.289 -45.867 -4.93712 6.10294 28.4351 9.1656 -6.26943 9.49875 3.10007 -0.512872 -2.47453 4.58783 1.79703 13.8696 11.4912 -1.96161 -8.94768 0.0189591 -1.33188e-009 8.75217e-006 -1.45022e-008 
176.716 99.8892 6.59422 -1.17121 0.583604 -97.2578 0.554872 -3.64 -3.84483 -1.87535 13.6829 -7.76814 2.14263 -8.16104 -0.164332 0.0462048 0.000530889 0.662642 2.92297 -10.9925 0.808702 -4.71436 21.6943 1.9589 3.19215 -3.98795 -4.60465 -37.3141 7.93367 -14.6302 -44.8588 -36.5398 -11.1143 -14.2818 24.5762 -4.83385 21.8502 9.10213 1.09438 49.6763 13.0337 18.8107 21.281 -45.5552 -5.07263 6.16376 28.2445 9.30273 -6.41798 9.48847 3.08904 -0.523342 -2.67377 4.59527 1.72885 13.9629 11.6968 -1.96024 -9.01369 0.0185204 -1.33188e-009 8.75217e-006 -1.45022e-008 
176.654 99.8825 6.65389 -1.08894 0.549171 -97.4467 0.498737 -3.76479 -3.79537 -1.91116 13.7763 -7.62747 2.14841 -8.21522 -0.164355 0.0462048 0.000530889 0.662642 2.58955 -11.0204 0.838284 -4.25771 21.6705 1.8653 2.92027 -3.90452 -4.55272 -37.9223 8.21925 -15.0094 -43.8151 -34.8198 -10.3408 -13.9026 22.4315 -6.23408 22.0035 9.10156 1.12285 49.4938 12.9724 18.7862 21.3929 -45.6164 -5.06452 6.07446 28.5909 9.30471 -6.38082 9.4882 3.13231 -0.543195 -2.72698 4.65008 1.61463 13.9984 11.8406 -1.85866 -9.06754 0.0180669 -1.33188e-009 8.75217e-006 -1.45022e-008 
